<svg width="25" height="25" viewBox="0 0 25 25" fill="none" xmlns="http://www.w3.org/2000/svg">
<g clip-path="url(#clip0_2_20)">
<path d="M4.26376 21.5879C5.332 22.6561 6.57872 23.496 7.96455 24.084C9.40287 24.6929 10.9278 25 12.5 25C14.0722 25 15.5971 24.6929 17.0354 24.084C18.4239 23.4961 19.668 22.6588 20.7362 21.5879C21.8044 20.5197 22.6443 19.273 23.2323 17.8871C23.8412 16.4488 24.1483 14.9239 24.1483 13.3517C24.1483 11.7795 23.8412 10.2546 23.2323 8.81628C22.6444 7.42783 21.8071 6.18373 20.7362 5.11549C19.668 4.04725 18.4212 3.20736 17.0354 2.61943C16.8386 2.53544 16.6391 2.45932 16.437 2.38583V6.41471C17.0512 6.76379 17.6233 7.19948 18.1378 7.71392C19.6443 9.22048 20.4737 11.2231 20.4737 13.3517C20.4737 15.4803 19.6443 17.4829 18.1378 18.9895C16.6312 20.4961 14.6286 21.3255 12.5 21.3255C10.3714 21.3255 8.36875 20.4961 6.86218 18.9895C5.35562 17.4829 4.52623 15.4803 4.52623 13.3517C4.52623 11.2231 5.35562 9.22048 6.86218 7.71392C7.37662 7.19948 7.94877 6.76379 8.56297 6.41471V2.38583C8.3635 2.45932 8.16402 2.53544 7.96455 2.61943C6.57609 3.20736 5.332 4.04463 4.26376 5.11549C3.19552 6.18373 2.35562 7.43045 1.7677 8.81628C1.15877 10.2546 0.851685 11.7795 0.851685 13.3517C0.851685 14.9239 1.15877 16.4488 1.7677 17.8871C2.35562 19.273 3.19552 20.5197 4.26376 21.5879Z" fill="#595959"/>
<path d="M12.5 13.4331C13.5157 13.4331 14.3373 12.6115 14.3373 11.5958V5.59055V1.84777V1.83727C14.3373 0.821522 13.5157 0 12.5 0C11.4842 0 10.6627 0.821522 10.6627 1.83727V1.84777V5.59055V11.5984C10.6627 12.6115 11.4842 13.4331 12.5 13.4331Z" fill="#595959"/>
</g>
<defs>
<clipPath id="clip0_2_20">
<rect width="25" height="25" fill="white"/>
</clipPath>
</defs>
</svg>
