<svg width="25" height="25" viewBox="0 0 25 25" fill="none" xmlns="http://www.w3.org/2000/svg">
<g clip-path="url(#clip0_2_2)">
<path d="M1.05677 14.3895L2.69519 14.3997C2.94019 15.6604 3.42508 16.8854 4.16007 17.9981L2.99633 19.1516C2.5778 19.5651 2.5778 20.2337 2.98612 20.6523L4.24173 21.9232C4.65517 22.3417 5.3238 22.3417 5.74234 21.9334L6.90608 20.7799C8.00856 21.5251 9.22844 22.0304 10.4892 22.2856L10.4789 23.924C10.4738 24.511 10.9485 24.9856 11.5355 24.9907L13.3219 25.0009C13.9089 25.0061 14.3836 24.5314 14.3887 23.9444L14.3989 22.306C15.6596 22.061 16.8846 21.5761 17.9973 20.8411L19.1508 22.0048C19.5642 22.4234 20.2329 22.4234 20.6514 22.015L21.9223 20.7594C22.3409 20.346 22.3409 19.6774 21.9326 19.2588L20.779 18.0951C21.5242 16.9926 22.0295 15.7727 22.2847 14.512L23.9232 14.5222C24.5101 14.5273 24.9848 14.0526 24.9899 13.4657L25.0001 11.6792C25.0052 11.0923 24.5305 10.6176 23.9436 10.6125L22.3052 10.6023C22.0602 9.34156 21.5753 8.11657 20.8403 7.00388L22.004 5.85035C22.4225 5.43692 22.4225 4.76828 22.0142 4.34974L20.7586 3.07882C20.3452 2.66029 19.6765 2.66029 19.258 3.06861L18.0943 4.22214C16.9918 3.47694 15.7719 2.97164 14.5112 2.71643L14.5214 1.07801C14.5265 0.491042 14.0518 0.0163602 13.4648 0.0112561L11.6784 0.00104786C11.0914 -0.00405624 10.6168 0.470625 10.6117 1.0576L10.5963 2.69601C9.33052 2.94101 8.10554 3.4259 6.99795 4.16089L5.84442 2.99716C5.43099 2.57862 4.76235 2.57862 4.34382 2.98695L3.078 4.24256C2.65946 4.65599 2.65946 5.32463 3.06779 5.74316L4.22132 6.9069C3.47612 8.00939 2.97081 9.22927 2.71561 10.49L1.07719 10.4798C0.490218 10.4747 0.0155362 10.9494 0.0104321 11.5363L0.000223885 13.3228C-0.00488022 13.9046 0.469801 14.3844 1.05677 14.3895ZM9.15188 9.11698C11.02 7.26929 14.0263 7.2846 15.874 9.15271C17.7217 11.0208 17.7064 14.0271 15.8383 15.8748C13.9702 17.7225 10.9638 17.7072 9.11615 15.8391C7.26847 13.971 7.28378 10.9647 9.15188 9.11698Z" fill="#595959"/>
</g>
<defs>
<clipPath id="clip0_2_2">
<rect width="25" height="25" fill="white"/>
</clipPath>
</defs>
</svg>
